<svg width="152" height="56" fill="none" xmlns="http://www.w3.org/2000/svg"><path d="M23.043 25.072L18.22 37.64l-4.852-12.567h-1.761L6.728 37.64 1.964 25.072H0L5.717 39.86h1.935l4.793-12.116 4.794 12.116h1.934l5.747-14.787h-1.877zm19.094 7.394c0-4.442-3.09-7.506-7.363-7.506-4.274 0-7.421 3.12-7.421 7.506 0 4.385 3.234 7.534 7.97 7.534 2.396 0 4.504-.843 5.861-2.418l-1.155-1.293c-1.155 1.293-2.8 1.94-4.649 1.94-3.32 0-5.746-2.052-5.977-5.145h12.705c0-.225.029-.45.029-.618zm-7.363-5.791c2.974 0 5.14 2.024 5.4 4.92H29.402c.26-2.896 2.425-4.92 5.37-4.92zm20.661-1.715c-2.426 0-4.505 1.012-5.776 2.924V19h-2.05v20.86h1.964v-2.924C50.815 38.932 52.923 40 55.435 40 59.765 40 63 36.936 63 32.466s-3.234-7.506-7.565-7.506zm-.145 13.269c-3.234 0-5.66-2.305-5.66-5.763 0-3.458 2.426-5.763 5.66-5.763 3.205 0 5.66 2.305 5.66 5.763 0 3.458-2.455 5.763-5.66 5.763z" fill="#fff"/><path d="M84.615 36.684c-2.315 1.564-3.367 1.757-4.821 2.482-4.297 2.142-4.702 4.59-5.418 6.834V13.374c0-2.675-2.226-5.732-7.569-5.732-2.23 0-4.006 0-5.787-.764-1.78-.764-3.561-2.292-5.787-4.585C53.099.095 49.33.004 49.02 0H49h.02c.601.005 14.334.114 22.24 0 4.006 0 7.122 0 8.458 2.293.445.764.445 3.821.445 6.114v4.967c0 1.147-.025 2.654.89 3.44.89.764 2.427 1.318 3.562 2.292 1.78 1.529 1.336 3.44 1.336 5.732v6.878c0 1.73-.23 4.22-1.336 4.968z" fill="url(#paint0_linear)"/><path d="M86 0h22s-3.15.382-4.5 1.908c-1.202 1.359-2.561 3.611-3.6 4.58-2.852 2.66-5.85 2.66-8.55 2.66-3.15 0-5.296-.189-5.35 1.908-.05 1.908 0 .394 0 1.538-.088 2.042-.052 5.4-.023 6.782.015.147.023.303.023.47 0 .334-.01.1-.023-.47-.36-3.573-4.927-1.65-4.927-6.782V6.488C81.05 2.672 80.15 0 86 0z" fill="url(#paint1_linear)"/><mask id="mask0" maskUnits="userSpaceOnUse" x="81" y="0" width="35" height="22"><path d="M86.534.206h28.632s-3.391.387-4.844 1.932c-1.293 1.375-2.022 3.258-3.874 4.636-1.853 1.377-7.582 3.028-14.438 3.028-4.657 0-5.418 3.858-5.476 5.98a78.176 78.176 0 00-.04 4.872c.026.188.04.387.04.601 0 .467-.022.143-.04-.6-.482-3.543-5.288-2.563-5.288-7.7V6.774c0-3.863-.969-6.568 5.328-6.568z" fill="url(#paint2_linear)"/></mask><g mask="url(#mask0)"><path d="M83.575-.953c4.843-.386.484-.386 8.718 0-2.906 1.546-2.39 2.538-5.328 4.636-3.139 2.242 9.203 18.158 0 18.544-6.296.264-7.233-3.935-8.202-1.617 0-1.545-.323-8.499-.484-11.203-.485-8.113 1.3-10.041 5.296-10.36z" fill="url(#paint3_linear)"/><path d="M92.923-1.327c5.144-.41 10.253-.41 18.997 0-3.086 1.641-5.623.643-8.744 2.872-3.333 2.38-2.537 3.515-12.31 3.925-6.687.281-3.6 12.719-4.63 15.18 0-1.64-.342-9.026-.514-11.898-.514-8.615 2.958-9.74 7.201-10.079z" fill="url(#paint4_linear)"/><path d="M87.48-2.402c4.844-.386 10.14-.992 18.373-.606C102.947-1.462 91.841-1.12 88.902.98c-3.139 2.242-2.422 2.704-2.422 5.504 0 4.384.97 11.88 0 14.199.334-6.954 0-7.822-4.843-11.59-7.29-5.67 1.848-11.175 5.844-11.494z" fill="url(#paint5_linear)"/><path d="M100.29 4.85c3.26-2.673 4.361-7.526 16.482-5.977-3.103 1.7-1.056 5.106-6.732 7.747-3.503 3.736-16.666 7.091-21.703 7.638C81.319.835 97.029 7.522 100.29 4.849z" fill="url(#paint6_linear)"/><path d="M100.077 3.37c3.601-2.461 6.32-5.174 15.064-4.763-3.086 1.64-6.334.468-8.744 2.872-2.878 2.87-5.875 6.154-14.917 5.743-5.658.41-3.39 5.463-3.904 5.463-3.984-10.739 8.9-6.853 12.501-9.314z" fill="url(#paint7_linear)"/></g><mask id="mask1" maskUnits="userSpaceOnUse" x="42" y="0" width="44" height="47"><path d="M78.837 39.793c1.79-.723 3.462-1.445 5.235-2.706 1.092-.776 1.34-3.274 1.34-5.022v-6.954c0-2.318.448-4.25-1.34-5.795-1.14-.985-2.682-1.545-3.576-2.318-.918-.794-.893-2.318-.893-3.477V8.5c0-2.318 0-5.408-.447-6.181C77.815 0 74.686 0 70.663 0 62.548.118 42.06 0 42.06 0s4.022 0 6.257 2.318c2.235 2.318 3.672 3.09 5.81 4.636 2.138 1.545 9.857 2.436 12.096 2.436 5.969 0 7.57 3.177 7.57 5.88v31.333c.867-4.23 3.254-5.882 5.045-6.81z" fill="url(#paint8_linear)"/></mask><g mask="url(#mask1)"><path d="M74.687 3.492c-4.47-.387-.447-.387-8.045 0 2.682 1.545 2.205 2.537 4.916 4.636 2.897 2.241.44 1.194 1.769 6.939.512 2.213-.38 5.186 1.36 6.954 1.63 1.655 4.022 3.09 6.703 5.022 2.682 1.932 4.47 7.727 2.682 10.43 8.492-10.43-4.647-20.917-4.498-23.622.447-8.113-1.2-10.04-4.887-10.36z" fill="url(#paint9_linear)"/><path d="M82.768 46.345c-1.556 0 .447.386 8.045 0-2.681-1.546-2.204-2.538-4.916-4.636-2.896-2.242.845 1.51-.484-4.235-.512-2.213 1.126-4.636-.447-7.34-2.235-3.091-4.55-3.477-7.151-5.795-2.602-2.318-4.917-3.09-4.47-8.5-5.282 8.515.11 11.801 4.47 14.977 3.947 2.876 6.823 5.855 4.275 8.976 1.037 8.072 2.234 6.553.678 6.553z" fill="url(#paint10_linear)"/><path d="M76.927 48.94c-1.556 0-.555 12.598 7.043 12.211-2.682-1.545.773-14.75-1.939-16.848-2.896-2.241 3.268 2.37 1.939-3.375-.512-2.213-1.054.537-2.626-2.167 6.685-1.651-4.793-9.51-7.395-11.828-2.602-2.318-4.916-3.09-4.47-8.499-5.281 8.515-2.522 9.929 1.837 13.104 3.948 2.876 8.834 5.675 7.587 9.39 1.037 8.072-.42 8.011-1.976 8.011z" fill="url(#paint11_linear)"/><path d="M71.948 58.845c-1.556 0-.555 12.598 7.043 12.212-2.681-1.546.773-14.75-1.939-16.848-2.896-2.242-.705-.004-2.035-5.75-.512-2.212 5.034-4.724 3.462-7.428 2.984-3.818-3.462-5.97-4.555-8.77-1.571-4.025-9.87 1.487-9.423-3.922-5.282 8.515-2.523 9.93 1.837 13.105 3.947 2.875 8.833 5.674 7.586 9.39 1.037 8.072-.42 8.01-1.976 8.01z" fill="url(#paint12_linear)"/><path d="M75.152-.372c-4.47-.386-.447-.386-8.045 0 2.681 1.546 2.204 2.538 4.916 4.636 2.896 2.242.439 1.195 1.769 6.94.512 2.212.494 4.414 2.234 6.18 1.63 1.656 4.994 2.93 6.258 3.478 3.732 1.615 1.934 8.38 3.128 10.817 4.023-11.59-5.522-18.987-5.373-21.691.447-8.113-1.2-10.04-4.887-10.36z" fill="url(#paint13_linear)"/><path d="M70.608-.848c-4.63-.524-9.697-1.287-17.527-1.1 2.827 1.67 13.421 2.311 16.3 4.554 3.075 2.396 2.409 2.855 2.514 5.746.164 4.525-.477 12.24.533 14.66-.579-7.19-.294-8.077 4.18-11.841 6.732-5.667-2.18-11.586-6-12.019z" fill="url(#paint14_linear)"/><path d="M65.923.027c-5.64-.442-11.239-.465-20.818-.086 3.395 1.687 6.168.68 9.605 2.967 3.67 2.441 2.807 3.594 13.52 4.057 7.329.316 4.042 12.981 5.188 15.495-.013-1.673.307-9.2.473-12.126.497-8.78-3.316-9.943-7.968-10.307z" fill="url(#paint15_linear)"/><path d="M57.872 6.454C53.889 3.894 52.039-.248 42.665-.08c3.392 1.726 3.288 3.088 9.27 5.849 4.69 3.48 15.58 6.259 20.038 7.193-.5-10.66-10.118-3.947-14.101-6.507z" fill="url(#paint16_linear)"/><path d="M57.38 4.267c-4.118-2.62-6.722-5.927-16.704-5.505 3.528 1.748 7.232.508 9.99 3.064 3.295 3.052 3.803 6.105 17.046 6.125 5.312 1.227 3.439 5.418 4.123 4.798C74.743 2.297 61.497 6.887 57.38 4.267z" fill="url(#paint17_linear)"/></g><path d="M80.647 40.13c1.307-.653 3.06-1.295 4.353-3.13v7.449c0 3.03-.235 3.239-.47 3.886-.275.756-1.412 3.239-4.47 4.102-2.134.603-4.59 1.404-5.06 3.563v-6.045c0-2.375.353-4.319 1.647-6.694.705-1.294 1.412-1.835 4-3.13z" fill="url(#paint18_linear)"/><mask id="mask2" maskUnits="userSpaceOnUse" x="74" y="37" width="11" height="19"><path d="M80.433 40.618c1.325-.625 3.104-1.238 4.416-2.992v11.247c0 1.547-2.148 2.992-5.013 3.508-2.217.399-4.7 1.341-5.178 3.405v-5.778c0-2.27.403-4.128 1.716-6.398.715-1.236 1.433-1.754 4.059-2.992z" fill="url(#paint19_linear)"/></mask><g mask="url(#mask2)"><path d="M75.222 64.453s.391-4.334 2.779-7.739c-5.97-.825 2.626-4.746 4.416-8.46 1.874-3.887 3.12-10.01 2.15-11.35-2.236-3.091-6.743 4.522-9.345 2.205-2.602-2.318-4.917-3.091-4.47-8.5-5.282 8.515-1.885 14.16 2.474 17.335 3.947 2.876 2.984 2.786.358 6.604-2.03 6.087 1.638 9.905 1.638 9.905z" fill="url(#paint20_linear)"/><path d="M75.381 55.786s-3.64-5.366 0-5.366c2.023-3.611 5.604-4.01 6.56-6.294.718-1.72 2.267-4.643 1.193-8.048-2.235-3.09-5.151-3.319-7.753-5.637-2.602-2.318-4.916-3.09-4.47-8.499-5.281 8.515 1.776 10.238 6.135 13.414 3.948 2.876 2.149 6.294-.478 10.112-2.029 6.087-1.187 10.318-1.187 10.318z" fill="url(#paint21_linear)"/><path d="M72.357 60.739s2.42-1.136 4.808-4.54c-5.969-.826 2.865-6.088 2.865-8.668 0-2.063-.164-6.5-.836-7.429-2.234-3.09-4.235-2.39-6.837-4.708-2.602-2.318-4.917-3.09-4.47-8.5-5.282 8.516-1.885 14.16 2.474 17.335 3.947 2.876 2.984 2.786.358 6.604-2.03 6.088 1.638 9.906 1.638 9.906z" fill="url(#paint22_linear)"/></g><path d="M108.776 25.112v7.738c0 3.365-1.991 5.356-5.166 5.356-2.887 0-4.56-1.599-4.56-4.739v-8.355H97v8.552C97 37.897 99.54 40 103.408 40c2.424 0 4.387-1.037 5.455-2.832v2.692h1.962V25.112h-2.049zM125.599 25c-2.627 0-4.676 1.037-5.773 2.832v-2.72h-1.962V39.86h2.049v-7.74c0-3.364 2.049-5.327 5.311-5.327 2.886 0 4.56 1.598 4.56 4.71v8.356h2.049v-8.552c0-4.233-2.54-6.308-6.234-6.308zM152 32.486c0-4.43-3.088-7.486-7.36-7.486s-7.418 3.112-7.418 7.486S140.455 40 145.188 40c2.396 0 4.503-.841 5.86-2.411l-1.155-1.29c-1.155 1.29-2.8 1.935-4.647 1.935-3.319 0-5.744-2.047-5.975-5.131h12.7c0-.224.029-.449.029-.617zm-7.36-5.776c2.973 0 5.138 2.019 5.397 4.907h-10.766c.26-2.888 2.425-4.907 5.369-4.907zM6 53.965h1.896c1.52 0 2.546-1.028 2.546-2.465 0-1.437-1.026-2.465-2.546-2.465H6v4.93zm.35-.324v-4.282h1.519c1.355 0 2.224.887 2.224 2.141s-.869 2.14-2.224 2.14h-1.52zm9.549.324h.35v-4.93h-.35v4.93zm9.685-.747c-.39.324-.856.451-1.362.451-1.246 0-2.17-.937-2.17-2.169 0-1.24.924-2.169 2.17-2.169.582 0 1.081.162 1.499.584l.219-.239c-.424-.45-1.034-.676-1.725-.676-1.451 0-2.512 1.063-2.512 2.5s1.06 2.5 2.505 2.5c.657 0 1.28-.211 1.711-.634v-1.845h-.335v1.697zm6.116.747h.349v-4.93h-.35v4.93zm7.18 0h.348v-4.606h1.725v-.324h-3.799v.324h1.725v4.606zm10.522 0h.377l-2.204-4.93h-.35l-2.203 4.93h.376l.61-1.388h2.778l.616 1.388zm-3.258-1.69l1.253-2.845 1.26 2.845h-2.513zm8.748 1.69H58v-.324h-2.758v-4.606h-.35v4.93zm47.452.007h.373l-2.185-3.944h-.346L98 53.972h.373l.604-1.11h2.756l.611 1.11zm-3.23-1.352l1.241-2.276 1.249 2.276h-2.49zm12.002.755c-.387.259-.849.36-1.351.36-1.235 0-2.152-.75-2.152-1.735 0-.992.917-1.735 2.152-1.735.577 0 1.072.13 1.487.467l.217-.191c-.421-.36-1.025-.541-1.711-.541-1.439 0-2.491.85-2.491 2s1.052 2 2.484 2c.652 0 1.27-.169 1.697-.507v-1.476h-.332v1.358zm6.41.338v-1.617h2.532v-.254h-2.532v-1.555h2.831v-.259h-3.177v3.944h3.278v-.26h-2.932zm11.926-3.685v3.425l-3.231-3.425h-.292v3.944h.346v-3.425l3.238 3.425h.285v-3.944h-.346zM137.675 54c.672 0 1.276-.186 1.69-.552l-.218-.186c-.407.332-.902.473-1.459.473-1.215 0-2.131-.743-2.131-1.735 0-.992.916-1.735 2.131-1.735.557 0 1.052.135 1.459.467l.218-.185c-.414-.367-1.018-.547-1.69-.547-1.412 0-2.464.85-2.464 2s1.052 2 2.464 2zM148 50.028h-.36l-1.717 2.321-1.717-2.32h-.38l1.914 2.585v1.358h.346v-1.358L148 50.028z" fill="#fff"/><defs><linearGradient id="paint0_linear" x1="70.352" y1="0" x2="70.352" y2="54.149" gradientUnits="userSpaceOnUse"><stop stop-color="#fff"/><stop offset="1" stop-color="#fff"/></linearGradient><linearGradient id="paint1_linear" x1="96.581" y1="0" x2="96.581" y2="23.543" gradientUnits="userSpaceOnUse"><stop stop-color="#fff"/><stop offset="1" stop-color="#fff"/></linearGradient><linearGradient id="paint2_linear" x1="100.781" y1=".206" x2="100.781" y2="25.24" gradientUnits="userSpaceOnUse"><stop stop-color="#fff"/><stop offset="1" stop-color="#fff"/></linearGradient><linearGradient id="paint3_linear" x1="74.26" y1="17.019" x2="92.827" y2="-6.259" gradientUnits="userSpaceOnUse"><stop stop-color="#fff"/><stop offset="1" stop-color="#fff"/></linearGradient><linearGradient id="paint4_linear" x1="79.341" y1="15.151" x2="103.709" y2="-15.399" gradientUnits="userSpaceOnUse"><stop stop-color="#fff"/><stop offset="1" stop-color="#fff"/></linearGradient><linearGradient id="paint5_linear" x1="77.644" y1="13.633" x2="100.105" y2="-14.527" gradientUnits="userSpaceOnUse"><stop stop-color="#fff"/><stop offset="1" stop-color="#fff"/></linearGradient><linearGradient id="paint6_linear" x1="89.563" y1="14.989" x2="106.32" y2="-13.095" gradientUnits="userSpaceOnUse"><stop stop-color="#fff"/><stop offset="1" stop-color="#fff"/></linearGradient><linearGradient id="paint7_linear" x1="87.463" y1="12.595" x2="108.159" y2="-13.352" gradientUnits="userSpaceOnUse"><stop stop-color="#fff"/><stop offset="1" stop-color="#fff"/></linearGradient><linearGradient id="paint8_linear" x1="67.106" y1="0" x2="67.106" y2="54.859" gradientUnits="userSpaceOnUse"><stop stop-color="#fff"/><stop offset="1" stop-color="#fff"/></linearGradient><linearGradient id="paint9_linear" x1="93.234" y1="29.555" x2="64.669" y2="-3.492" gradientUnits="userSpaceOnUse"><stop stop-color="#fff"/><stop offset="1" stop-color="#fff"/></linearGradient><linearGradient id="paint10_linear" x1="65.725" y1="22.426" x2="92.284" y2="53.152" gradientUnits="userSpaceOnUse"><stop stop-color="#fff"/><stop offset="1" stop-color="#fff"/></linearGradient><linearGradient id="paint11_linear" x1="58.671" y1="27.777" x2="90.843" y2="64.997" gradientUnits="userSpaceOnUse"><stop stop-color="#fff"/><stop offset="1" stop-color="#fff"/></linearGradient><linearGradient id="paint12_linear" x1="54.817" y1="36.71" x2="86.989" y2="73.93" gradientUnits="userSpaceOnUse"><stop stop-color="#fff"/><stop offset="1" stop-color="#fff"/></linearGradient><linearGradient id="paint13_linear" x1="93.676" y1="24.536" x2="65.796" y2="-7.72" gradientUnits="userSpaceOnUse"><stop stop-color="#fff"/><stop offset="1" stop-color="#fff"/></linearGradient><linearGradient id="paint14_linear" x1="80.582" y1="15.963" x2="56.307" y2="-12.122" gradientUnits="userSpaceOnUse"><stop stop-color="#fff"/><stop offset="1" stop-color="#fff"/></linearGradient><linearGradient id="paint15_linear" x1="80.932" y1="16.885" x2="56.413" y2="-16.16" gradientUnits="userSpaceOnUse"><stop stop-color="#fff"/><stop offset="1" stop-color="#fff"/></linearGradient><linearGradient id="paint16_linear" x1="70.968" y1="13.707" x2="51.371" y2="-12.704" gradientUnits="userSpaceOnUse"><stop stop-color="#fff"/><stop offset="1" stop-color="#fff"/></linearGradient><linearGradient id="paint17_linear" x1="71.24" y1="13.193" x2="50.336" y2="-14.98" gradientUnits="userSpaceOnUse"><stop stop-color="#fff"/><stop offset="1" stop-color="#fff"/></linearGradient><linearGradient id="paint18_linear" x1="80.771" y1="37" x2="80.771" y2="59.366" gradientUnits="userSpaceOnUse"><stop stop-color="#fff"/><stop offset="1" stop-color="#fff"/></linearGradient><linearGradient id="paint19_linear" x1="80.539" y1="37.626" x2="80.539" y2="59.003" gradientUnits="userSpaceOnUse"><stop stop-color="#fff"/><stop offset="1" stop-color="#fff"/></linearGradient><linearGradient id="paint20_linear" x1="62.145" y1="38.049" x2="84.105" y2="63.454" gradientUnits="userSpaceOnUse"><stop stop-color="#fff"/><stop offset="1" stop-color="#fff"/></linearGradient><linearGradient id="paint21_linear" x1="60.904" y1="30.593" x2="82.863" y2="55.998" gradientUnits="userSpaceOnUse"><stop stop-color="#fff"/><stop offset="1" stop-color="#fff"/></linearGradient><linearGradient id="paint22_linear" x1="57.879" y1="35.545" x2="80.032" y2="61.174" gradientUnits="userSpaceOnUse"><stop stop-color="#fff"/><stop offset="1" stop-color="#fff"/></linearGradient></defs></svg>