<svg width="20" height="20" fill="none" xmlns="http://www.w3.org/2000/svg"><path d="M8.444 9.48c.884-.423 1.345-1.062 1.345-2.056 0-1.961-1.461-2.44-3.147-2.44H2v9.845h4.772c1.79 0 3.47-.858 3.47-2.858 0-1.236-.586-2.15-1.798-2.492zm-4.28-2.815h2.03c.781 0 1.484.22 1.484 1.125 0 .836-.547 1.173-1.32 1.173H4.164V6.665zm2.314 6.492H4.164v-2.711h2.358c.953 0 1.556.397 1.556 1.405 0 .995-.72 1.306-1.6 1.306zm9.958-6.686h-3.992V5.5h3.992v.97zM18 11.368c0-2.108-1.233-3.867-3.47-3.867-2.172 0-3.647 1.634-3.647 3.773 0 2.22 1.398 3.741 3.648 3.741 1.702 0 2.805-.766 3.336-2.397h-1.728c-.186.608-.953.93-1.547.93-1.148 0-1.75-.672-1.75-1.813h5.141c.009-.117.017-.242.017-.367zm-5.156-.867c.064-.936.687-1.522 1.625-1.522.984 0 1.478.578 1.562 1.522h-3.187z" fill="#fff"/></svg>