<svg width="16" height="12" fill="none" xmlns="http://www.w3.org/2000/svg"><path d="M6.444 5.48c.884-.423 1.345-1.062 1.345-2.056 0-1.961-1.461-2.44-3.147-2.44H0v9.845h4.772c1.79 0 3.47-.858 3.47-2.858 0-1.236-.586-2.15-1.798-2.492zm-4.28-2.815h2.03c.781 0 1.484.22 1.484 1.125 0 .837-.547 1.173-1.32 1.173H2.164V2.665zm2.314 6.492H2.164V6.446h2.358c.953 0 1.556.397 1.556 1.406 0 .994-.72 1.305-1.6 1.305zm9.958-6.686h-3.992v-.97h3.992v.97zM16 7.368c0-2.108-1.233-3.866-3.47-3.866-2.172 0-3.647 1.633-3.647 3.772 0 2.22 1.398 3.741 3.648 3.741 1.702 0 2.805-.766 3.336-2.397h-1.728c-.186.609-.953.93-1.547.93-1.148 0-1.75-.671-1.75-1.813h5.141A5.12 5.12 0 0016 7.368zm-5.156-.866c.064-.937.687-1.523 1.625-1.523.984 0 1.478.578 1.562 1.523h-3.187z" fill="#3D3028"/></svg>